<?xml version="1.0" encoding="utf-8"?>
<!-- Generator: Adobe Illustrator 25.2.3, SVG Export Plug-In . SVG Version: 6.00 Build 0)  -->
<svg version="1.1" id="Layer_1" xmlns="http://www.w3.org/2000/svg" xmlns:xlink="http://www.w3.org/1999/xlink" x="0px" y="0px"
	 viewBox="0 0 189.3 99" style="enable-background:new 0 0 189.3 99;" xml:space="preserve">
<style type="text/css">
	.st0{fill:#FFFFFF;}
	.st1{fill:#7FBE26;}
</style>
<g id="Layer_2_1_">
	<g id="_·_ÀÌ_î_1">
		<path class="st0" d="M95.8,19.2v25.1H97c1.3,0.1,2.4-0.9,2.4-2.2c0,0,0,0,0,0V19.2H95.8z"/>
		<path class="st0" d="M43.7,24.3h-5v2.4h5v6.6h1.2c1.3,0,2.4-0.9,2.4-2.2V19.2h-3.6V24.3z"/>
		<path class="st0" d="M87.6,19.4H84V26c0,1.3-0.3,2.5-0.8,3.6c-0.8,1.5-2.1,3-5.4,4.6l1.6,2.1c2.6-0.8,4.8-2.4,6.5-4.5
			c1.7,2.1,3.9,3.7,6.5,4.5l1.6-2.1c-3.4-1.6-4.7-3.1-5.4-4.6c-0.5-1.1-0.8-2.4-0.8-3.6V19.4z"/>
		<path class="st0" d="M51.5,36.2h10.3v8.4H63c1.3,0.1,2.5-0.9,2.6-2.2v-6.1h10.3v-2.4H51.5V36.2z"/>
		<path class="st0" d="M65.5,22.2h6.9v-2.4H54.8v2.4h6.9v0.2c0,1.2-0.4,2.3-1.1,3.2c-1,1.3-3,2.8-7.3,3.6l1.2,2.5
			c4.5-0.9,7.5-2.5,9.1-4.4c1.6,1.9,4.6,3.6,9.1,4.4l1.2-2.5c-4.3-0.8-6.3-2.3-7.3-3.6c-0.7-0.9-1.1-2.1-1.1-3.2V22.2z"/>
		<path class="st0" d="M39.8,33.7c-3.9,0-7,2.5-7,5.7s3.2,5.6,7,5.6s7-2.5,7-5.7S43.7,33.7,39.8,33.7z M39.8,42.6
			c-1.8,0-3.3-1.4-3.3-3.2c0-1.8,1.4-3.3,3.2-3.3c1.8,0,3.3,1.4,3.3,3.2c0,0,0,0,0,0.1C43,41.1,41.6,42.6,39.8,42.6z"/>
		<path class="st0" d="M39.8,32.6l1.5-2.3c-3.5-1.5-4.8-2.9-5.6-4.4c-0.5-1.1-0.7-2.3-0.7-3.5h5.1v-2.4H35v-2h-3.6v2h-5.1v2.4h5.1
			c0,1.2-0.2,2.4-0.7,3.5c-0.7,1.5-2,2.9-5.5,4.4l1.5,2.3c3.4-1.3,5.5-3.1,6.6-4.9C34.2,29.6,36.4,31.4,39.8,32.6z"/>
		<path class="st0" d="M30.5,62.1c-2.5,0-4.5-1.7-4.5-5.3s2-5.3,4.5-5.3c0.8,0,1.7,0.2,2.4,0.5l-0.7,1.6c-0.4-0.3-1-0.4-1.5-0.4
			c-1.4,0-2.5,1.2-2.5,3.5s1,3.5,2.5,3.5c0.5,0,1-0.1,1.5-0.4l0.7,1.6C32.1,61.9,31.3,62.1,30.5,62.1z"/>
		<path class="st0" d="M40.1,61.9v-4.4h-3.5v4.4h-2.2V51.7h2.2v4.2h3.5v-4.2h2.2v10.2H40.1z"/>
		<path class="st0" d="M44.4,61.9V51.7h6v1.7h-3.8v2.6H50v1.6h-3.5v2.7h3.8v1.7H44.4z"/>
		<path class="st0" d="M55.8,62.1c-3,0-4.3-2.3-4.3-5.3s1.4-5.3,4.3-5.3s4.3,2.3,4.3,5.3S58.7,62.1,55.8,62.1z M55.8,53.3
			c-1.4,0-2.2,1.4-2.2,3.5s0.7,3.5,2.2,3.5s2.2-1.4,2.2-3.5S57.2,53.3,55.8,53.3z"/>
		<path class="st0" d="M68.1,61.9l-4-6c-0.2-0.4-0.5-0.8-0.7-1.2l0,0c0,0,0,0.7,0,1.3v5.9h-1.9V51.7h1.9l3.9,5.9
			c0.2,0.4,0.5,0.8,0.7,1.2l0,0c0,0,0-0.7,0-1.4v-5.7h1.9v10.2H68.1z"/>
		<path class="st0" d="M76.4,62.1c-3.1,0-5.1-2-5.1-5.3c-0.2-2.8,1.9-5.1,4.7-5.3c0.2,0,0.4,0,0.6,0c1,0,1.9,0.2,2.8,0.5l-0.7,1.5
			c-0.6-0.3-1.4-0.4-2.1-0.4c-1.8,0-3.2,1.1-3.2,3.6s1.3,3.6,2.8,3.6c0.4,0,0.8,0,1.2-0.2v-2.9h-1.7v-1.5h3.8v5.7
			C78.5,61.9,77.5,62.1,76.4,62.1z"/>
		<path class="st0" d="M80,65v-1.7c1.2-0.2,2.1-1.3,2-2.5v-9.1h2.2v9.1C84.1,63.4,82.6,64.7,80,65z"/>
		<path class="st0" d="M90.1,62c-2.2,0-3.8-1.1-3.8-3.2v-7.2h2.2v7.2c0.1,0.9,1,1.5,1.9,1.4c0.7-0.1,1.3-0.7,1.4-1.4v-7.2h2.2v7.2
			C93.9,60.9,92.2,62,90.1,62z"/>
		<path class="st0" d="M30.5,76.6c-2.5,0-4.5-1.7-4.5-5.3s2-5.3,4.5-5.3c0.8,0,1.7,0.2,2.4,0.6l-0.7,1.6c-0.5-0.3-1-0.4-1.5-0.4
			c-1.4,0-2.5,1.2-2.5,3.5s1,3.5,2.5,3.5c0.5,0,1-0.1,1.5-0.4l0.7,1.6C32.1,76.4,31.3,76.6,30.5,76.6z"/>
		<path class="st0" d="M34.5,76.4V66.2h2.2v10.2H34.5z"/>
		<path class="st0" d="M42.5,67.8v8.6h-2.2v-8.6h-2.4v-1.7h6.9v1.7H42.5z"/>
		<path class="st0" d="M50.7,72.4v4h-2.2v-4l-3.3-6.2h2.4l2,4.2l0,0l2.1-4.2H54L50.7,72.4z"/>
		<path class="st1" d="M156.8,12.5c-1.7,0-3.4,0.1-5.1,0.3v17.6c1.8-0.3,3.6-0.4,5.4-0.4c0.7,0,1.4,0,2.1,0.1c0,0.7,0.1,1.4,0.1,2.1
			c0,9.8-3.9,19.2-10.8,26.1l0,0c-4.5,4.5-10,7.7-16.1,9.4v17.9c10.8-2,20.7-7.2,28.4-15l0,0c10.2-10.2,15.9-24,15.9-38.5V12.5
			H156.8z M102.8,86.5h19.7c1.7,0,3.5-0.1,5.2-0.2V68.7c-1.7,0.3-3.5,0.4-5.3,0.4c-0.7,0-1.4,0-2.1-0.1c0-0.7-0.1-1.4-0.1-2.1
			c0-16.5,10.9-30.9,26.7-35.5V13.5c-25.5,4.9-44,27.1-44.2,53L102.8,86.5z"/>
	</g>
</g>
</svg>
